# xmcd
#
# Track frame offsets: 
#        150
#        19641
#        41912
#        60566
#        86978
#        108390
#        125726
#        144103
#        166608
#        186757
#        208342
#        229696
#
# Disc length: 3345 seconds
#
# Revision: 2
# Processed by: cddbd v1.5.2PL0 Copyright (c) Steve Scherf et al.
# Submitted via: ExactAudioCopyFreeDBPlugin 1.0
#
DISCID=a30d0f0c
DTITLE=Lệ Quyên - Giấc mơ có thật [CD Vol. 1)
DYEAR=2004
DGENRE=Pop
TTITLE0=Giấc mơ có thật
TTITLE1=Trăng chiều
TTITLE2=Tim em là của anh
TTITLE3=Hãy trả lời em
TTITLE4=Thôi đừng chiêm bao
TTITLE5=Về bên em
TTITLE6=Tình là thế
TTITLE7=Quên một cuộc tình
TTITLE8=Lệ Quyên and Tường Văn - Thu xa
TTITLE9=Phút giây hạnh phúc
TTITLE10=Thôi đừng chiêm bao (Karaoke)
TTITLE11=Phút giây hạnh phúc (Karaoke)
EXTD=
EXTT0=
EXTT1=
EXTT2=
EXTT3=
EXTT4=
EXTT5=
EXTT6=
EXTT7=
EXTT8=
EXTT9=
EXTT10=
EXTT11=
PLAYORDER=
